<svg width="102" height="106" viewBox="0 0 102 106" fill="none" xmlns="http://www.w3.org/2000/svg">
<path d="M51 106C79.1665 106 102 82.2711 102 53C102 23.7289 79.1665 0 51 0C22.8335 0 0 23.7289 0 53C0 82.2711 22.8335 106 51 106Z" fill="#7D2AE7"/>
<path d="M51 106C79.1665 106 102 82.2711 102 53C102 23.7289 79.1665 0 51 0C22.8335 0 0 23.7289 0 53C0 82.2711 22.8335 106 51 106Z" fill="url(#paint0_radial_10_93)"/>
<path d="M51 106C79.1665 106 102 82.2711 102 53C102 23.7289 79.1665 0 51 0C22.8335 0 0 23.7289 0 53C0 82.2711 22.8335 106 51 106Z" fill="url(#paint1_radial_10_93)"/>
<path d="M51 106C79.1665 106 102 82.2711 102 53C102 23.7289 79.1665 0 51 0C22.8335 0 0 23.7289 0 53C0 82.2711 22.8335 106 51 106Z" fill="url(#paint2_radial_10_93)"/>
<path d="M51 106C79.1665 106 102 82.2711 102 53C102 23.7289 79.1665 0 51 0C22.8335 0 0 23.7289 0 53C0 82.2711 22.8335 106 51 106Z" fill="url(#paint3_radial_10_93)"/>
<path d="M73.0181 63.872C72.5972 63.872 72.2268 64.2413 71.8413 65.048C67.4886 74.2204 59.9707 80.7103 51.2709 80.7103C41.2116 80.7103 34.9821 71.2736 34.9821 58.2367C34.9821 36.1533 46.8221 23.3852 57.2215 23.3852C62.081 23.3852 65.0487 26.5587 65.0487 31.6091C65.0487 37.603 61.7718 40.7766 61.7718 42.8906C61.7718 43.8395 62.3398 44.4141 63.4661 44.4141C67.9911 44.4141 73.3021 39.0106 73.3021 31.3771C73.3021 23.9756 67.1032 18.5352 56.704 18.5352C39.5173 18.5352 24.243 35.0937 24.243 58.0046C24.243 75.7389 33.9879 87.4581 49.0237 87.4581C64.9826 87.4581 74.2104 70.9572 74.2104 65.6014C74.2104 64.4154 73.6269 63.872 73.0181 63.872Z" fill="white"/>
<defs>
<radialGradient id="paint0_radial_10_93" cx="0" cy="0" r="1" gradientUnits="userSpaceOnUse" gradientTransform="translate(19.7026 93.9501) rotate(-50.5014) scale(80.6872 80.1544)">
<stop stop-color="#6420FF"/>
<stop offset="1" stop-color="#6420FF" stop-opacity="0"/>
</radialGradient>
<radialGradient id="paint1_radial_10_93" cx="0" cy="0" r="1" gradientUnits="userSpaceOnUse" gradientTransform="translate(27.003 12.0503) rotate(55.7355) scale(91.2999 90.0817)">
<stop stop-color="#00C4CC"/>
<stop offset="1" stop-color="#00C4CC" stop-opacity="0"/>
</radialGradient>
<radialGradient id="paint2_radial_10_93" cx="0" cy="0" r="1" gradientUnits="userSpaceOnUse" gradientTransform="translate(19.7021 93.9495) rotate(-46.2969) scale(79.4866 36.5203)">
<stop stop-color="#6420FF"/>
<stop offset="1" stop-color="#6420FF" stop-opacity="0"/>
</radialGradient>
<radialGradient id="paint3_radial_10_93" cx="0" cy="0" r="1" gradientUnits="userSpaceOnUse" gradientTransform="translate(41.7126 14.2821) rotate(67.3146) scale(82.9613 135.325)">
<stop stop-color="#00C4CC" stop-opacity="0.725916"/>
<stop offset="0.0001" stop-color="#00C4CC"/>
<stop offset="1" stop-color="#00C4CC" stop-opacity="0"/>
</radialGradient>
</defs>
</svg>
