<svg width="512" height="384" viewBox="0 0 512 384" fill="none" xmlns="http://www.w3.org/2000/svg">
<rect width="512" height="384" fill="#D9D9D9"/>
<rect width="512" height="384" rx="9" fill="#8EC8F6"/>
<g filter="url(#filter0_d_152_2)">
<path d="M153.72 151.11C155.113 150.743 156.323 150.707 157.35 151C158.45 151.22 159.367 151.697 160.1 152.43C160.907 153.163 161.493 154.08 161.86 155.18C162.3 156.28 162.52 157.49 162.52 158.81C162.593 162.477 162.593 165.337 162.52 167.39C162.52 169.443 162.52 171.24 162.52 172.78V206.55C162.52 210.51 162.52 213.81 162.52 216.45C162.52 219.09 162.373 221.253 162.08 222.94C161.86 224.553 161.42 225.763 160.76 226.57C160.173 227.377 159.257 227.927 158.01 228.22C156.763 228.587 155.113 228.77 153.06 228.77C151.08 228.77 148.587 228.77 145.58 228.77C137.66 228.77 131.39 226.9 126.77 223.16C122.223 219.42 119.803 213.48 119.51 205.34C119.363 201.82 119.803 198.593 120.83 195.66C121.857 192.727 123.36 190.233 125.34 188.18C127.393 186.053 129.887 184.44 132.82 183.34C135.827 182.167 139.237 181.617 143.05 181.69H149.1V162C149.1 160.827 149.1 159.69 149.1 158.59C149.1 157.417 149.21 156.353 149.43 155.4C149.65 154.373 150.09 153.493 150.75 152.76C151.41 152.027 152.4 151.477 153.72 151.11ZM134.58 212.16C136.12 214.287 138.907 215.46 142.94 215.68C143.747 215.753 144.517 215.79 145.25 215.79C145.983 215.717 146.643 215.607 147.23 215.46C147.89 215.387 148.513 215.277 149.1 215.13V194.78C146.533 194.34 144.187 194.083 142.06 194.01C140.007 193.863 137.953 194.597 135.9 196.21C134.8 197.09 133.957 198.227 133.37 199.62C132.783 200.94 132.453 202.37 132.38 203.91C132.307 205.377 132.453 206.843 132.82 208.31C133.187 209.777 133.773 211.06 134.58 212.16ZM184.262 181.69C186.462 180.59 188.772 179.82 191.192 179.38C193.612 178.867 195.996 178.757 198.342 179.05C200.762 179.27 203.072 179.893 205.272 180.92C207.472 181.873 209.526 183.267 211.432 185.1C213.339 187.007 214.806 189.097 215.832 191.37C216.859 193.643 217.592 196.173 218.032 198.96C218.326 200.867 218.802 202.627 219.462 204.24C220.122 205.853 220.819 207.467 221.552 209.08C222.359 210.693 223.092 212.307 223.752 213.92C224.486 215.533 225.072 217.22 225.512 218.98C225.879 220.667 225.732 222.317 225.072 223.93C224.486 225.47 223.239 226.423 221.332 226.79C220.232 227.01 219.169 226.937 218.142 226.57C217.189 226.13 216.309 225.543 215.502 224.81C214.696 224.003 213.962 223.16 213.302 222.28C212.716 221.327 212.166 220.447 211.652 219.64C209.966 221.84 208.132 223.563 206.152 224.81C204.172 225.983 201.789 226.753 199.002 227.12C196.656 227.413 194.419 227.487 192.292 227.34C190.166 227.193 187.892 226.79 185.472 226.13C182.319 225.323 179.716 223.93 177.662 221.95C175.682 219.897 174.142 217.55 173.042 214.91C172.016 212.197 171.466 209.3 171.392 206.22C171.319 203.14 171.686 200.097 172.492 197.09C173.519 193.13 175.059 189.903 177.112 187.41C179.166 184.917 181.549 183.01 184.262 181.69ZM187.012 194.56C185.986 195.587 185.179 196.797 184.592 198.19C184.006 199.583 183.639 201.05 183.492 202.59C183.419 204.13 183.566 205.67 183.932 207.21C184.299 208.75 184.886 210.107 185.692 211.28C186.426 212.307 187.672 213.187 189.432 213.92C191.192 214.58 193.026 214.983 194.932 215.13C197.132 215.277 199.039 214.69 200.652 213.37C202.339 212.05 203.586 210.4 204.392 208.42C205.272 206.367 205.676 204.203 205.602 201.93C205.529 199.583 204.906 197.457 203.732 195.55C202.852 194.157 201.679 193.13 200.212 192.47C198.819 191.81 197.316 191.48 195.702 191.48C194.089 191.407 192.476 191.663 190.862 192.25C189.322 192.763 188.039 193.533 187.012 194.56ZM277.061 179.82C277.354 180.7 277.428 181.69 277.281 182.79C277.134 183.89 276.878 185.027 276.511 186.2C276.144 187.3 275.704 188.4 275.191 189.5C274.751 190.527 274.348 191.443 273.981 192.25C272.074 196.137 270.278 199.95 268.591 203.69C266.904 207.43 264.924 211.5 262.651 215.9C262.211 216.78 261.698 217.843 261.111 219.09C260.598 220.263 260.011 221.437 259.351 222.61C258.691 223.71 257.958 224.737 257.151 225.69C256.418 226.643 255.611 227.34 254.731 227.78C253.998 228.22 253.264 228.403 252.531 228.33C251.944 228.477 251.284 228.293 250.551 227.78C249.671 227.34 248.828 226.643 248.021 225.69C247.288 224.737 246.591 223.71 245.931 222.61C245.271 221.437 244.648 220.263 244.061 219.09C243.548 217.843 243.071 216.78 242.631 215.9C241.751 214.213 240.908 212.637 240.101 211.17C239.368 209.703 238.561 208.127 237.681 206.44C236.874 204.68 235.958 202.7 234.931 200.5C233.904 198.227 232.694 195.477 231.301 192.25C230.934 191.37 230.531 190.453 230.091 189.5C229.651 188.547 229.248 187.52 228.881 186.42C228.588 185.32 228.368 184.22 228.221 183.12C228.148 181.947 228.221 180.773 228.441 179.6C228.661 178.5 229.211 177.62 230.091 176.96C230.971 176.3 231.961 175.86 233.061 175.64C234.161 175.42 235.261 175.457 236.361 175.75C237.461 175.97 238.341 176.447 239.001 177.18C239.661 177.84 240.284 178.72 240.871 179.82C241.458 180.92 242.008 182.093 242.521 183.34C243.108 184.513 243.621 185.723 244.061 186.97C244.574 188.143 245.051 189.17 245.491 190.05C246.518 192.177 247.654 194.487 248.901 196.98C250.221 199.473 251.394 201.783 252.421 203.91C253.154 202.223 253.814 200.83 254.401 199.73C254.988 198.557 255.538 197.42 256.051 196.32C256.638 195.22 257.224 194.01 257.811 192.69C258.471 191.37 259.278 189.683 260.231 187.63C261.111 185.723 261.991 183.853 262.871 182.02C263.824 180.187 264.961 178.573 266.281 177.18C266.941 176.447 267.784 175.97 268.811 175.75C269.838 175.457 270.901 175.42 272.001 175.64C273.101 175.86 274.091 176.337 274.971 177.07C275.924 177.73 276.621 178.647 277.061 179.82ZM300.086 186.31C300.086 188.363 300.086 190.673 300.086 193.24C300.16 195.807 300.196 198.483 300.196 201.27C300.196 203.983 300.196 206.697 300.196 209.41C300.196 212.05 300.16 214.507 300.086 216.78C300.013 217.88 299.903 219.09 299.756 220.41C299.61 221.657 299.316 222.83 298.876 223.93C298.436 225.03 297.74 225.947 296.786 226.68C295.906 227.34 294.696 227.633 293.156 227.56C290.883 227.413 289.233 226.423 288.206 224.59C287.253 222.757 286.703 220.19 286.556 216.89C286.556 215.203 286.52 213.26 286.446 211.06C286.446 208.86 286.41 206.623 286.336 204.35C286.336 202.077 286.336 199.877 286.336 197.75C286.336 195.55 286.336 193.57 286.336 191.81C286.336 190.783 286.3 189.537 286.226 188.07C286.226 186.603 286.263 185.1 286.336 183.56C286.41 182.02 286.593 180.553 286.886 179.16C287.18 177.693 287.656 176.483 288.316 175.53C288.83 174.943 289.563 174.503 290.516 174.21C291.47 173.843 292.46 173.66 293.486 173.66C294.586 173.66 295.613 173.843 296.566 174.21C297.593 174.577 298.326 175.09 298.766 175.75C299.06 176.19 299.28 176.813 299.426 177.62C299.573 178.427 299.683 179.343 299.756 180.37C299.903 181.323 299.976 182.35 299.976 183.45C300.05 184.477 300.086 185.43 300.086 186.31ZM295.906 164.09C293.633 164.677 291.726 164.457 290.186 163.43C288.72 162.33 287.803 160.717 287.436 158.59C287.143 157.05 287.253 155.693 287.766 154.52C288.28 153.347 289.05 152.467 290.076 151.88C291.103 151.22 292.276 150.927 293.596 151C294.916 151.073 296.236 151.587 297.556 152.54C298.803 153.42 299.683 154.447 300.196 155.62C300.783 156.793 300.966 157.93 300.746 159.03C300.6 160.13 300.123 161.157 299.316 162.11C298.51 162.99 297.373 163.65 295.906 164.09Z" fill="#0D2847"/>
</g>
<g filter="url(#filter1_d_152_2)">
<path d="M299.6 241.8C297.867 241.8 296 241.467 294 240.8C292 240.267 290.333 239.333 289 238L325.8 187.4L293.2 141.2C294.267 140.267 295.733 139.533 297.6 139C299.6 138.467 301.4 138.2 303 138.2C308.067 138.2 311.8 140 314.2 143.6L335 174.6L331.2 180L332.2 180.8L357.6 143.6C358.8 141.867 360.4 140.533 362.4 139.6C364.533 138.667 366.8 138.2 369.2 138.2C370.8 138.2 372.533 138.467 374.4 139C376.267 139.533 377.733 140.267 378.8 141.2L346 187.4L382.6 238C381.4 239.333 379.867 240.267 378 240.8C376.267 241.467 374.6 241.8 373 241.8C370.867 241.8 368.733 241.333 366.6 240.4C364.467 239.6 362.933 238.467 362 237L335.8 198.8L309.8 237C308.733 238.6 307.267 239.8 305.4 240.6C303.533 241.4 301.6 241.8 299.6 241.8Z" fill="#0D2847"/>
</g>
<circle cx="376.5" cy="237.5" r="9.5" fill="#1572FF" fill-opacity="0.6"/>
<circle cx="376.5" cy="237.5" r="6.5" stroke="#E7F4FF" stroke-opacity="0.97" stroke-width="6"/>
<defs>
<filter id="filter0_d_152_2" x="115.29" y="150.56" width="189.786" height="86.21" filterUnits="userSpaceOnUse" color-interpolation-filters="sRGB">
<feFlood flood-opacity="0" result="BackgroundImageFix"/>
<feColorMatrix in="SourceAlpha" type="matrix" values="0 0 0 0 0 0 0 0 0 0 0 0 0 0 0 0 0 0 127 0" result="hardAlpha"/>
<feOffset dy="4"/>
<feGaussianBlur stdDeviation="2"/>
<feComposite in2="hardAlpha" operator="out"/>
<feColorMatrix type="matrix" values="0 0 0 0 0 0 0 0 0 0 0 0 0 0 0 0 0 0 0.25 0"/>
<feBlend mode="normal" in2="BackgroundImageFix" result="effect1_dropShadow_152_2"/>
<feBlend mode="normal" in="SourceGraphic" in2="effect1_dropShadow_152_2" result="shape"/>
</filter>
<filter id="filter1_d_152_2" x="285" y="138.2" width="101.6" height="111.6" filterUnits="userSpaceOnUse" color-interpolation-filters="sRGB">
<feFlood flood-opacity="0" result="BackgroundImageFix"/>
<feColorMatrix in="SourceAlpha" type="matrix" values="0 0 0 0 0 0 0 0 0 0 0 0 0 0 0 0 0 0 127 0" result="hardAlpha"/>
<feOffset dy="4"/>
<feGaussianBlur stdDeviation="2"/>
<feComposite in2="hardAlpha" operator="out"/>
<feColorMatrix type="matrix" values="0 0 0 0 0 0 0 0 0 0 0 0 0 0 0 0 0 0 0.25 0"/>
<feBlend mode="normal" in2="BackgroundImageFix" result="effect1_dropShadow_152_2"/>
<feBlend mode="normal" in="SourceGraphic" in2="effect1_dropShadow_152_2" result="shape"/>
</filter>
</defs>
</svg>
