<svg width="100" height="100" viewBox="0 0 100 100" fill="none" xmlns="http://www.w3.org/2000/svg">
<g clip-path="url(#clip0_16_282)">
<path d="M100 50C100 22.386 77.614 0 50 0C22.386 0 0 22.386 0 50C0 73.448 16.144 93.124 37.922 98.528V65.28H27.612V50H37.922V43.416C37.922 26.398 45.624 18.51 62.332 18.51C65.5 18.51 70.966 19.132 73.202 19.752V33.602C72.022 33.478 69.972 33.416 67.426 33.416C59.228 33.416 56.06 36.522 56.06 44.596V50H72.392L69.586 65.28H56.06V99.634C80.818 96.644 100.002 75.564 100.002 50H100Z" fill="#0866FF"/>
<path d="M69.584 65.2798L72.39 49.9998H56.058V44.5958C56.058 36.5218 59.226 33.4158 67.424 33.4158C69.97 33.4158 72.02 33.4778 73.2 33.6018V19.7518C70.964 19.1298 65.498 18.5098 62.33 18.5098C45.622 18.5098 37.92 26.3978 37.92 43.4158V49.9998H27.61V65.2798H37.92V98.5278C41.788 99.4878 45.834 99.9998 49.998 99.9998C52.048 99.9998 54.07 99.8738 56.056 99.6338V65.2798H69.582H69.584Z" fill="white"/>
</g>
<defs>
<clipPath id="clip0_16_282">
<rect width="100" height="100" fill="white"/>
</clipPath>
</defs>
</svg>
