<svg width="122" height="131" viewBox="0 0 122 131" fill="none" xmlns="http://www.w3.org/2000/svg">
<path fill-rule="evenodd" clip-rule="evenodd" d="M61.0505 0C27.2911 0 0 30.0207 0 67.1604C0 96.8482 17.4864 121.978 41.7446 130.873C44.7775 131.541 45.8885 129.427 45.8885 127.649C45.8885 126.092 45.7885 120.756 45.7885 115.195C28.8057 119.199 25.2692 107.189 25.2692 107.189C22.54 99.4054 18.4961 97.4049 18.4961 97.4049C12.9376 93.2907 18.901 93.2907 18.901 93.2907C25.0668 93.7356 28.3021 100.185 28.3021 100.185C33.7593 110.413 42.5531 107.523 46.0909 105.744C46.5958 101.407 48.2141 98.4052 49.9323 96.7376C36.3874 95.1806 22.1363 89.3989 22.1363 63.6016C22.1363 56.2629 24.5607 50.2588 28.4021 45.5892C27.796 43.9217 25.6728 37.0265 29.0094 27.7978C29.0094 27.7978 34.1642 26.0184 45.7872 34.6917C50.7635 33.2215 55.8954 32.4737 61.0505 32.4674C66.2053 32.4674 71.4601 33.2466 76.3125 34.6917C87.9367 26.0184 93.0916 27.7978 93.0916 27.7978C96.4281 37.0265 94.3037 43.9217 93.6976 45.5892C97.6403 50.2588 99.9646 56.2629 99.9646 63.6016C99.9646 89.3989 85.7136 95.0688 72.0674 96.7376C74.2918 98.85 76.2113 102.852 76.2113 109.191C76.2113 118.197 76.1113 125.425 76.1113 127.648C76.1113 129.427 77.2235 131.541 80.2551 130.874C104.513 121.977 122 96.8482 122 67.1604C122.1 30.0207 94.7086 0 61.0505 0Z" fill="#24292F"/>
</svg>
