<svg width="100" height="100" viewBox="0 0 100 100" fill="none" xmlns="http://www.w3.org/2000/svg">
<g clip-path="url(#clip0_16_278)">
<path d="M49.9993 40.9092V60.2729H76.9083C75.7267 66.5001 72.1808 71.773 66.8627 75.3184L83.0899 87.9095C92.5444 79.1825 97.999 66.3642 97.999 51.1369C97.999 47.5916 97.6809 44.1821 97.0898 40.9097L49.9993 40.9092Z" fill="#4285F4"/>
<path d="M21.9778 59.5166L18.3179 62.3182L5.36316 72.4089C13.5904 88.7269 30.4528 99.9999 49.9981 99.9999C63.4978 99.9999 74.8158 95.5453 83.0887 87.9091L66.8615 75.3181C62.4069 78.3181 56.7251 80.1364 49.9981 80.1364C36.9982 80.1364 25.953 71.3638 21.9982 59.5455L21.9778 59.5166Z" fill="#34A853"/>
<path d="M5.36325 27.5908C1.95434 34.3178 0 41.9088 0 49.9996C0 58.0904 1.95434 65.6814 5.36325 72.4084C5.36325 72.4535 21.9999 59.4993 21.9999 59.4993C20.9999 56.4993 20.4088 53.3177 20.4088 49.9991C20.4088 46.6805 20.9999 43.4988 21.9999 40.4989L5.36325 27.5908Z" fill="#FBBC05"/>
<path d="M49.9991 19.9091C57.3629 19.9091 63.9082 22.4545 69.1355 27.3636L83.4535 13.0456C74.7717 4.95485 63.4993 0 49.9991 0C30.4538 0 13.5904 11.2273 5.36316 27.5909L21.9993 40.5C25.9536 28.6817 36.9992 19.9091 49.9991 19.9091Z" fill="#EA4335"/>
</g>
<defs>
<clipPath id="clip0_16_278">
<rect width="100" height="100" fill="white"/>
</clipPath>
</defs>
</svg>
