<svg width="116" height="129" viewBox="0 0 116 129" fill="none" xmlns="http://www.w3.org/2000/svg">
<path d="M0 30C0 13.4315 13.4315 0 30 0H86C102.569 0 116 13.4315 116 30V98.0952C116 114.664 102.569 128.095 86 128.095H30C13.4315 128.095 0 114.664 0 98.0952V30Z" fill="#F7DF1E"/>
<path d="M30.5007 107.046L39.3774 101.113C41.0902 104.466 42.6481 107.303 46.385 107.303C49.9669 107.303 52.2258 105.756 52.2258 99.7378V58.8084H63.1266V99.9079C63.1266 112.376 56.5083 118.051 46.8522 118.051C38.1318 118.051 33.0699 113.064 30.5002 107.045M69.0476 105.756L77.9234 100.081C80.2602 104.295 83.297 107.39 88.6693 107.39C93.1865 107.39 96.0665 104.896 96.0665 101.457C96.0665 97.3295 93.1076 95.8674 88.1241 93.4606L85.3995 92.1697C77.5346 88.4734 72.3178 83.83 72.3178 74.0277C72.3178 64.999 78.5469 58.1199 88.2805 58.1199C95.2106 58.1199 100.194 60.7859 103.776 67.7505L95.2876 73.77C93.4185 70.0728 91.3948 68.6112 88.28 68.6112C85.0873 68.6112 83.0627 70.8468 83.0627 73.77C83.0627 77.3812 85.0873 78.8438 89.759 81.0794L92.4841 82.3689C101.751 86.7547 106.967 91.2255 106.967 101.285C106.967 112.12 99.2588 118.052 88.9026 118.052C78.7803 118.052 72.2394 112.721 69.0471 105.756" fill="black"/>
</svg>
