<svg width="512" height="384" viewBox="0 0 512 384" fill="none" xmlns="http://www.w3.org/2000/svg">
<rect width="512" height="384" rx="9" fill="#5F6563"/>
<path d="M210.128 209.896C206.288 209.896 203.109 208.552 200.592 205.864C198.117 203.176 196.88 199.229 196.88 194.024C196.88 188.819 198.352 184.531 201.296 181.16C204.24 177.789 208.059 176.104 212.752 176.104C215.739 176.104 218.149 177.021 219.984 178.856C221.819 180.648 222.736 182.909 222.736 185.64C222.736 188.328 221.328 190.803 218.512 193.064C215.739 195.325 211.685 196.456 206.352 196.456C204.944 196.456 203.451 196.392 201.872 196.264C202.171 199.293 203.088 201.597 204.624 203.176C206.203 204.755 208.101 205.544 210.32 205.544C214.032 205.544 217.125 204.392 219.6 202.088L221.904 205.224C218.661 208.339 214.736 209.896 210.128 209.896ZM212.56 180.456C209.616 180.456 207.163 181.501 205.2 183.592C203.28 185.683 202.149 188.456 201.808 191.912C203.216 192.125 204.773 192.232 206.48 192.232C210.149 192.232 212.965 191.549 214.928 190.184C216.891 188.819 217.872 187.24 217.872 185.448C217.872 184.125 217.381 182.973 216.4 181.992C215.461 180.968 214.181 180.456 212.56 180.456ZM246.12 176.104C253.117 176.104 256.616 180.584 256.616 189.544V209H251.752V189.544C251.752 183.485 249.597 180.456 245.288 180.456C242.813 180.456 240.552 181.736 238.504 184.296C236.499 186.856 235.432 190.376 235.304 194.856V209H230.44V183.4L229.8 177L234.024 176.68L235.24 183.272C236.563 180.968 238.205 179.197 240.168 177.96C242.131 176.723 244.115 176.104 246.12 176.104ZM282.558 176.104C289.555 176.104 293.054 180.584 293.054 189.544V209H288.19V189.544C288.19 183.485 286.035 180.456 281.726 180.456C279.251 180.456 276.99 181.736 274.942 184.296C272.936 186.856 271.87 190.376 271.742 194.856V209H266.878V183.4L266.238 177L270.462 176.68L271.678 183.272C273 180.968 274.643 179.197 276.606 177.96C278.568 176.723 280.552 176.104 282.558 176.104ZM314.003 209.896C310.163 209.896 306.984 208.552 304.467 205.864C301.992 203.176 300.755 199.229 300.755 194.024C300.755 188.819 302.227 184.531 305.171 181.16C308.115 177.789 311.934 176.104 316.627 176.104C319.614 176.104 322.024 177.021 323.859 178.856C325.694 180.648 326.611 182.909 326.611 185.64C326.611 188.328 325.203 190.803 322.387 193.064C319.614 195.325 315.56 196.456 310.227 196.456C308.819 196.456 307.326 196.392 305.747 196.264C306.046 199.293 306.963 201.597 308.499 203.176C310.078 204.755 311.976 205.544 314.195 205.544C317.907 205.544 321 204.392 323.475 202.088L325.779 205.224C322.536 208.339 318.611 209.896 314.003 209.896ZM316.435 180.456C313.491 180.456 311.038 181.501 309.075 183.592C307.155 185.683 306.024 188.456 305.683 191.912C307.091 192.125 308.648 192.232 310.355 192.232C314.024 192.232 316.84 191.549 318.803 190.184C320.766 188.819 321.747 187.24 321.747 185.448C321.747 184.125 321.256 182.973 320.275 181.992C319.336 180.968 318.056 180.456 316.435 180.456ZM330.731 181.16V177H335.595L337.131 167.4H340.459V177H347.947V181.16H340.459V202.024C340.459 204.371 341.419 205.544 343.339 205.544C344.79 205.544 346.368 204.925 348.075 203.688L349.867 206.952C347.392 208.915 344.982 209.896 342.635 209.896C340.288 209.896 338.518 209.341 337.323 208.232C336.171 207.08 335.595 205.011 335.595 202.024V181.16H330.731ZM381.999 209H377.135V189.544C377.135 183.485 374.98 180.456 370.671 180.456C368.196 180.456 365.935 181.736 363.887 184.296C361.881 186.856 360.815 190.376 360.687 194.856V209H355.823V164.2H360.687V183.208C361.967 180.904 363.567 179.155 365.487 177.96C367.449 176.723 369.455 176.104 371.503 176.104C378.5 176.104 381.999 180.584 381.999 189.544V209Z" fill="#F2EFF3"/>
<path d="M137.824 160.288L132.448 152.608C140.448 147.936 146.752 145.6 151.36 145.6C153.984 145.6 155.84 146.144 156.928 147.232C158.016 148.256 158.56 150.016 158.56 152.512C158.56 154.944 158.144 158.368 157.312 162.784C156.544 167.2 155.488 172.416 154.144 178.432C152.864 184.448 151.936 189.28 151.36 192.928L157.408 187.552C157.984 187.04 158.912 186.24 160.192 185.152C161.536 184 162.464 183.168 162.976 182.656C163.552 182.144 164.32 181.44 165.28 180.544C166.24 179.584 166.944 178.784 167.392 178.144C167.84 177.504 168.352 176.768 168.928 175.936C169.824 174.528 170.272 172.96 170.272 171.232C170.272 169.44 170.016 167.872 169.504 166.528C174.048 163.776 178.336 162.4 182.368 162.4C185.056 162.4 187.2 163.264 188.8 164.992C190.4 166.656 191.2 169.088 191.2 172.288C191.2 175.488 189.728 178.72 186.784 181.984C183.904 185.184 180.32 188 176.032 190.432C178.016 197.024 180.576 203.072 183.712 208.576C186.848 214.08 189.472 217.376 191.584 218.464C189.024 221.088 185.056 222.4 179.68 222.4C175.712 222.4 172.352 221.056 169.6 218.368C166.912 215.68 164.512 211.264 162.4 205.12L160 198.304L150.112 203.2C150.048 203.904 150.016 204.96 150.016 206.368C150.016 211.68 151.008 215.456 152.992 217.696C148.512 220.832 144.448 222.4 140.8 222.4C137.152 222.4 134.464 221.216 132.736 218.848C131.072 216.416 130.24 213.088 130.24 208.864C130.24 204.64 131.424 196 133.792 182.944C136.16 169.888 137.504 162.336 137.824 160.288Z" fill="#CBCBCB"/>
<path d="M123.835 244.227C123.412 239.317 125.739 235.391 130.817 232.448C135.831 229.51 142.738 227.662 151.537 226.903C160.401 226.138 169.748 226.521 179.58 228.05C189.475 229.573 197.973 232.02 205.073 235.39C212.173 238.761 215.89 242.391 216.226 246.28C216.567 250.234 215.46 253.413 212.905 255.817C207.037 250.349 198.969 246.548 188.699 244.415C178.499 242.339 169.606 241.629 162.018 242.283C154.494 242.932 148.154 244.282 142.999 246.332C137.85 248.446 133.355 251.821 129.515 256.456C126.075 252.32 124.182 248.244 123.835 244.227Z" fill="#F2EFF3"/>
</svg>
