<svg width="99" height="100" viewBox="0 0 99 100" fill="none" xmlns="http://www.w3.org/2000/svg">
<g clip-path="url(#clip0_16_279)">
<path d="M91.6919 0H7.30813C5.36989 0 3.51104 0.77774 2.1405 2.16212C0.769962 3.54651 0 5.42413 0 7.38195V92.618C0 94.5759 0.769962 96.4535 2.1405 97.8379C3.51104 99.2223 5.36989 100 7.30813 100H91.6919C93.6301 100 95.489 99.2223 96.8595 97.8379C98.23 96.4535 99 94.5759 99 92.618V7.38195C99 5.42413 98.23 3.54651 96.8595 2.16212C95.489 0.77774 93.6301 0 91.6919 0ZM29.5075 85.1875H14.6231V37.4306H29.5075V85.1875ZM22.055 30.8125C20.3666 30.8029 18.7189 30.2883 17.3198 29.3337C15.9207 28.3791 14.8328 27.0272 14.1936 25.4487C13.5544 23.8702 13.3924 22.1358 13.7281 20.4644C14.0638 18.793 14.8822 17.2595 16.0799 16.0574C17.2776 14.8554 18.801 14.0386 20.4578 13.7103C22.1146 13.3819 23.8306 13.5566 25.3892 14.2124C26.9478 14.8682 28.2791 15.9757 29.2152 17.3951C30.1512 18.8144 30.6501 20.482 30.6488 22.1875C30.6647 23.3293 30.4529 24.4627 30.0259 25.52C29.599 26.5774 28.9657 27.5371 28.1637 28.3419C27.3618 29.1468 26.4076 29.7803 25.3581 30.2048C24.3086 30.6292 23.1853 30.8359 22.055 30.8125ZM84.37 85.2292H69.4925V59.1389C69.4925 51.4444 66.2544 49.0694 62.0744 49.0694C57.6606 49.0694 53.3294 52.4306 53.3294 59.3333V85.2292H38.445V37.4653H52.7588V44.0833H52.9513C54.3881 41.1458 59.4206 36.125 67.1 36.125C75.405 36.125 84.3769 41.1042 84.3769 55.6875L84.37 85.2292Z" fill="#0A66C2"/>
</g>
<defs>
<clipPath id="clip0_16_279">
<rect width="99" height="100" fill="white"/>
</clipPath>
</defs>
</svg>
