<svg width="517" height="389" viewBox="0 0 517 389" fill="none" xmlns="http://www.w3.org/2000/svg">
<rect x="5" y="5" width="512" height="384" rx="9" fill="#D9D9D9"/>
<rect width="512" height="384" rx="9" fill="#218358"/>
<path d="M157.608 279.584C156.328 279.499 155.347 278.987 154.664 278.048C153.981 277.152 153.512 276.064 153.256 274.784C153 273.547 152.872 272.395 152.872 271.328C152.872 265.269 154.771 257.355 158.568 247.584C163.688 234.656 169.021 226.208 174.568 222.24C176.403 220.917 178.088 220.256 179.624 220.256C181.629 220.256 182.632 221.173 182.632 223.008C182.632 228.213 175.571 237.344 161.448 250.4H161.512C157.331 261.067 155.24 269.067 155.24 274.4C155.24 275.979 155.475 277.131 155.944 277.856C156.413 278.581 157.096 278.944 157.992 278.944C159.187 278.944 160.253 278.347 161.192 277.152C162.131 275.957 162.92 274.443 163.56 272.608C164.2 270.773 164.627 268.917 164.84 267.04C164.883 266.741 164.904 266.443 164.904 266.144C164.904 265.888 164.904 265.611 164.904 265.312C164.904 263.819 164.733 262.475 164.392 261.28C164.093 260.128 163.645 259.339 163.048 258.912C160.957 258.869 159.912 258.315 159.912 257.248C159.912 256.736 160.211 256.48 160.808 256.48C161.789 256.48 162.664 257.141 163.432 258.464C165.011 258.549 166.355 258.357 167.464 257.888C168.573 257.419 169.661 256.693 170.728 255.712C171.709 254.859 172.605 253.835 173.416 252.64C174.227 251.403 174.845 250.315 175.272 249.376C175.485 249.035 175.635 248.864 175.72 248.864C175.805 248.864 175.848 248.928 175.848 249.056C175.848 249.227 175.805 249.397 175.72 249.568C174.141 252.725 172.371 255.115 170.408 256.736C168.445 258.315 166.269 259.061 163.88 258.976C164.392 259.531 164.797 260.384 165.096 261.536C165.395 262.688 165.544 263.968 165.544 265.376C165.544 266.955 165.352 268.576 164.968 270.24C164.584 271.947 164.051 273.504 163.368 274.912C162.685 276.363 161.853 277.515 160.872 278.368C159.891 279.221 158.803 279.627 157.608 279.584ZM161.96 249.312C175.315 236.768 181.992 227.957 181.992 222.88C181.992 221.472 181.352 220.768 180.072 220.768C177.085 220.768 173.48 224.779 169.256 232.8C166.44 238.048 164.008 243.552 161.96 249.312ZM189.904 260.192C187.685 260.192 186.576 258.656 186.576 255.584C186.576 254.389 186.768 253.024 187.152 251.488C184.165 257.248 181.2 260.128 178.256 260.128C176.848 260.128 175.781 259.424 175.056 258.016C174.459 256.949 174.16 255.605 174.16 253.984C174.16 252.661 174.352 251.275 174.736 249.824C175.461 247.307 176.997 244.939 179.344 242.72C181.947 240.331 184.421 239.136 186.768 239.136C188.901 239.136 189.968 240.416 189.968 242.976C189.968 244.085 189.733 245.387 189.264 246.88L193.168 239.2H193.36C193.488 239.413 193.765 239.52 194.192 239.52C195.045 239.52 196.133 239.008 197.456 237.984L197.584 238.112L192.144 248.736C189.968 252.96 188.88 256.16 188.88 258.336C188.88 259.189 189.264 259.616 190.032 259.616C190.544 259.616 191.163 259.424 191.888 259.04C192.613 258.656 193.381 258.016 194.192 257.12C195.216 255.925 196.091 254.795 196.816 253.728C197.584 252.619 198.459 251.125 199.44 249.248C199.568 249.035 199.696 248.928 199.824 248.928C200.08 248.928 200.08 249.141 199.824 249.568C199.056 251.019 198.224 252.469 197.328 253.92C196.475 255.328 195.429 256.651 194.192 257.888C192.656 259.424 191.227 260.192 189.904 260.192ZM178.512 259.68C180.901 259.68 183.973 256.309 187.728 249.568C188.923 247.435 189.52 245.28 189.52 243.104C189.52 240.8 188.773 239.648 187.28 239.648C185.659 239.648 183.824 240.992 181.776 243.68C180.965 244.789 180.261 245.877 179.664 246.944C179.109 248.011 178.661 249.035 178.32 250.016C177.424 252.576 176.976 254.88 176.976 256.928C176.976 258.763 177.488 259.68 178.512 259.68ZM205.58 260.256C203.02 260.256 201.74 259.125 201.74 256.864C201.74 255.072 202.444 253.024 203.852 250.72C204.321 249.909 205.622 248.096 207.756 245.28C209.164 243.403 209.868 242.08 209.868 241.312C209.868 240.587 209.27 240.224 208.076 240.224C207.265 240.224 206.369 240.245 205.388 240.288C204.449 240.331 203.681 240.373 203.084 240.416C202.956 241.099 202.764 241.888 202.508 242.784C202.252 243.68 201.953 244.619 201.612 245.6C201.398 246.197 201.057 247.008 200.588 248.032C200.161 249.056 199.585 250.144 198.86 251.296C198.732 251.467 198.625 251.552 198.54 251.552C198.497 251.552 198.476 251.509 198.476 251.424C198.476 251.211 198.561 250.933 198.732 250.592C199.073 249.995 199.457 249.269 199.884 248.416C200.31 247.52 200.716 246.539 201.1 245.472C201.441 244.533 201.74 243.552 201.996 242.528C202.294 241.461 202.465 240.736 202.508 240.352C201.484 239.712 200.972 238.752 200.972 237.472C200.972 236.021 201.484 235.296 202.508 235.296C203.233 235.296 203.595 235.957 203.595 237.28C203.595 237.579 203.553 237.941 203.468 238.368C203.382 238.795 203.276 239.307 203.148 239.904C203.745 239.861 204.684 239.819 205.964 239.776C207.286 239.691 208.545 239.648 209.74 239.648C211.916 239.648 213.003 240.309 213.003 241.632C213.003 243.04 211.318 245.941 207.948 250.336C207.222 251.403 206.412 252.619 205.516 253.984C204.662 255.307 204.236 256.672 204.236 258.08C204.236 258.464 204.321 258.827 204.492 259.168C204.662 259.509 205.025 259.68 205.58 259.68C207.414 259.68 209.441 258.571 211.66 256.352C212.769 255.243 213.793 254.048 214.732 252.768C215.67 251.488 216.524 250.059 217.292 248.48C217.462 248.139 217.612 247.968 217.74 247.968C217.825 247.968 217.868 248.032 217.868 248.16C217.868 248.373 217.804 248.608 217.676 248.864C216.95 250.357 216.076 251.808 215.052 253.216C214.028 254.581 212.897 255.883 211.66 257.12C209.569 259.211 207.542 260.256 205.58 260.256ZM231.592 260.192C229.373 260.192 228.264 258.656 228.264 255.584C228.264 254.389 228.456 253.024 228.84 251.488C225.853 257.248 222.888 260.128 219.944 260.128C218.536 260.128 217.469 259.424 216.744 258.016C216.146 256.949 215.848 255.605 215.848 253.984C215.848 252.661 216.04 251.275 216.424 249.824C217.149 247.307 218.685 244.939 221.032 242.72C223.634 240.331 226.109 239.136 228.456 239.136C230.589 239.136 231.656 240.416 231.656 242.976C231.656 244.085 231.421 245.387 230.952 246.88L234.856 239.2H235.048C235.176 239.413 235.453 239.52 235.88 239.52C236.733 239.52 237.821 239.008 239.144 237.984L239.272 238.112L233.832 248.736C231.656 252.96 230.568 256.16 230.568 258.336C230.568 259.189 230.952 259.616 231.72 259.616C232.232 259.616 232.85 259.424 233.576 259.04C234.301 258.656 235.069 258.016 235.88 257.12C236.904 255.925 237.778 254.795 238.504 253.728C239.272 252.619 240.146 251.125 241.128 249.248C241.256 249.035 241.384 248.928 241.512 248.928C241.768 248.928 241.768 249.141 241.512 249.568C240.744 251.019 239.912 252.469 239.016 253.92C238.162 255.328 237.117 256.651 235.88 257.888C234.344 259.424 232.914 260.192 231.592 260.192ZM220.2 259.68C222.589 259.68 225.661 256.309 229.416 249.568C230.61 247.435 231.208 245.28 231.208 243.104C231.208 240.8 230.461 239.648 228.968 239.648C227.346 239.648 225.512 240.992 223.464 243.68C222.653 244.789 221.949 245.877 221.352 246.944C220.797 248.011 220.349 249.035 220.008 250.016C219.112 252.576 218.664 254.88 218.664 256.928C218.664 258.763 219.176 259.68 220.2 259.68ZM255.024 260.448C251.909 260.448 250.352 258.315 250.352 254.048C250.352 253.408 250.395 252.768 250.48 252.128C250.565 251.488 250.693 250.848 250.864 250.208C251.931 246.155 253.339 242.357 255.088 238.816C255.771 237.408 256.496 236.043 257.264 234.72C258.075 233.397 258.907 232.139 259.76 230.944C260.656 229.707 261.595 228.512 262.576 227.36C263.557 226.208 264.581 225.141 265.648 224.16C268.677 221.344 271.195 219.936 273.2 219.936C274.992 219.936 275.888 220.789 275.888 222.496C275.888 223.861 275.269 225.611 274.032 227.744C273.008 229.536 271.899 231.029 270.704 232.224C267.077 235.979 262.512 239.499 257.008 242.784C254.277 249.269 252.912 253.92 252.912 256.736C252.912 257.845 253.104 258.656 253.488 259.168C253.915 259.637 254.512 259.872 255.28 259.872C256.304 259.872 257.243 259.509 258.096 258.784C258.992 258.059 259.803 257.163 260.528 256.096C261.253 255.029 261.893 253.941 262.448 252.832C263.003 251.723 263.429 250.763 263.728 249.952C263.643 249.739 263.536 249.333 263.408 248.736C263.323 248.096 263.28 247.456 263.28 246.816C263.28 246.091 263.365 245.472 263.536 244.96C263.707 244.405 264.005 244.128 264.432 244.128C265.115 244.128 265.456 244.64 265.456 245.664C265.456 246.219 265.371 246.859 265.2 247.584C265.029 248.309 264.752 249.077 264.368 249.888C264.453 250.869 264.645 251.701 264.944 252.384C265.243 253.067 265.755 253.408 266.48 253.408C267.205 253.408 267.888 253.045 268.528 252.32C269.168 251.552 269.808 250.528 270.448 249.248C270.448 249.205 270.491 249.184 270.576 249.184C270.661 249.184 270.725 249.248 270.768 249.376C270.853 249.461 270.853 249.568 270.768 249.696C270.171 251.019 269.531 252.043 268.848 252.768C268.165 253.493 267.333 253.856 266.352 253.856C264.944 253.856 264.133 252.811 263.92 250.72C261.445 257.205 258.48 260.448 255.024 260.448ZM257.456 241.952C262.96 238.24 267.184 234.912 270.128 231.968C273.499 228.512 275.184 225.312 275.184 222.368C275.184 221.003 274.523 220.32 273.2 220.32C270.896 220.32 267.845 223.328 264.048 229.344C262.853 231.264 261.701 233.291 260.592 235.424C259.525 237.515 258.48 239.691 257.456 241.952ZM274.661 260.64C272.57 260.64 271.12 260.064 270.309 258.912C269.498 257.717 269.093 256.053 269.093 253.92C269.093 250.848 270.373 247.648 272.933 244.32C275.664 240.821 278.501 239.072 281.445 239.072C283.621 239.072 284.709 239.819 284.709 241.312C284.709 243.147 283.706 245.067 281.701 247.072C278.842 249.973 275.834 251.424 272.677 251.424C272.165 252.747 271.909 254.069 271.909 255.392C271.909 256.843 272.186 257.973 272.741 258.784C273.296 259.595 274.106 260 275.173 260C276.282 260 277.434 259.701 278.629 259.104C279.824 258.464 280.848 257.717 281.701 256.864C282.426 256.139 283.237 255.157 284.133 253.92C285.072 252.64 286.01 251.083 286.949 249.248C287.077 249.035 287.205 248.928 287.333 248.928C287.589 248.928 287.589 249.141 287.333 249.568C286.608 251.019 285.818 252.405 284.965 253.728C284.154 255.051 283.066 256.331 281.701 257.568C280.89 258.379 279.866 259.104 278.629 259.744C277.392 260.341 276.069 260.64 274.661 260.64ZM272.741 250.976C275.088 250.976 277.712 249.717 280.613 247.2V247.136C281.424 246.453 282.192 245.515 282.917 244.32C283.77 242.997 284.197 241.867 284.197 240.928C284.197 240.245 283.685 239.904 282.661 239.904C281.04 239.904 279.077 241.355 276.773 244.256C275.706 245.536 274.853 246.731 274.213 247.84C273.573 248.949 273.082 249.995 272.741 250.976ZM301.592 260.192C299.373 260.192 298.264 258.656 298.264 255.584C298.264 254.389 298.456 253.024 298.84 251.488C295.853 257.248 292.888 260.128 289.944 260.128C288.536 260.128 287.469 259.424 286.744 258.016C286.146 256.949 285.848 255.605 285.848 253.984C285.848 252.661 286.04 251.275 286.424 249.824C287.149 247.307 288.685 244.939 291.032 242.72C293.634 240.331 296.109 239.136 298.456 239.136C300.589 239.136 301.656 240.416 301.656 242.976C301.656 244.085 301.421 245.387 300.952 246.88L304.856 239.2H305.048C305.176 239.413 305.453 239.52 305.88 239.52C306.733 239.52 307.821 239.008 309.144 237.984L309.272 238.112L303.832 248.736C301.656 252.96 300.568 256.16 300.568 258.336C300.568 259.189 300.952 259.616 301.72 259.616C302.232 259.616 302.85 259.424 303.576 259.04C304.301 258.656 305.069 258.016 305.88 257.12C306.904 255.925 307.778 254.795 308.504 253.728C309.272 252.619 310.146 251.125 311.128 249.248C311.256 249.035 311.384 248.928 311.512 248.928C311.768 248.928 311.768 249.141 311.512 249.568C310.744 251.019 309.912 252.469 309.016 253.92C308.162 255.328 307.117 256.651 305.88 257.888C304.344 259.424 302.914 260.192 301.592 260.192ZM290.2 259.68C292.589 259.68 295.661 256.309 299.416 249.568C300.61 247.435 301.208 245.28 301.208 243.104C301.208 240.8 300.461 239.648 298.968 239.648C297.346 239.648 295.512 240.992 293.464 243.68C292.653 244.789 291.949 245.877 291.352 246.944C290.797 248.011 290.349 249.035 290.008 250.016C289.112 252.576 288.664 254.88 288.664 256.928C288.664 258.763 289.176 259.68 290.2 259.68ZM312.211 260.384C311.144 260.384 310.291 260.021 309.651 259.296C309.054 258.571 308.755 257.696 308.755 256.672C308.755 255.733 309.032 254.496 309.587 252.96C310.184 251.424 311.016 249.589 312.083 247.456C312.552 246.517 313.15 245.387 313.875 244.064C314.643 242.699 315.56 241.141 316.627 239.392H316.755C317.054 239.605 317.395 239.712 317.779 239.712C318.675 239.712 319.699 239.264 320.851 238.368L320.979 238.496C320.339 239.221 319.23 240.992 317.651 243.808C317.139 244.704 316.648 245.536 316.179 246.304C315.752 247.072 315.326 247.797 314.899 248.48C312.382 252.789 311.123 255.947 311.123 257.952C311.123 259.104 311.656 259.68 312.723 259.68C315.112 259.68 318.419 255.947 322.643 248.48C323.24 247.413 323.944 246.091 324.755 244.512C325.566 242.933 326.504 241.099 327.571 239.008H327.699C327.998 239.136 328.275 239.243 328.531 239.328C328.787 239.413 329.043 239.456 329.299 239.456C330.238 239.456 330.899 239.029 331.283 238.176L331.475 238.24L326.483 247.904C323.539 253.536 322.067 257.099 322.067 258.592C322.067 259.36 322.43 259.744 323.155 259.744C323.667 259.744 324.286 259.531 325.011 259.104C325.779 258.677 326.568 258.016 327.379 257.12C328.403 255.925 329.278 254.795 330.003 253.728C330.771 252.619 331.646 251.125 332.627 249.248C332.755 249.035 332.883 248.928 333.011 248.928C333.267 248.928 333.267 249.141 333.011 249.568C332.243 251.019 331.411 252.469 330.515 253.92C329.662 255.328 328.616 256.651 327.379 257.888C325.758 259.509 324.328 260.32 323.091 260.32C321.982 260.32 321.128 260.043 320.531 259.488C319.976 258.933 319.699 258.037 319.699 256.8C319.699 255.776 319.912 254.645 320.339 253.408C317.48 258.059 314.771 260.384 312.211 260.384ZM335.247 260.192C332.218 260.192 330.703 258.699 330.703 255.712C330.703 253.365 331.578 250.4 333.327 246.816C333.412 246.645 333.818 245.899 334.543 244.576C335.311 243.211 336.399 241.269 337.807 238.752H334.479L334.351 238.624L334.415 238.24L334.479 238.176H338.127L342.735 230.112C343.119 230.283 343.567 230.368 344.079 230.368C344.676 230.368 345.316 230.155 345.999 229.728C346.724 229.344 347.215 228.917 347.471 228.448L347.663 228.512L341.903 238.176H346.319L346.383 238.24V238.624L346.255 238.752H341.583L337.231 246.432C334.628 250.997 333.327 254.517 333.327 256.992C333.327 258.741 334.01 259.616 335.375 259.616C337.508 259.616 339.663 258.421 341.839 256.032C342.436 255.392 343.14 254.432 343.951 253.152C344.762 251.872 345.444 250.656 345.999 249.504C346.084 249.291 346.191 249.227 346.319 249.312C346.49 249.355 346.532 249.483 346.447 249.696C345.807 250.976 345.124 252.192 344.399 253.344C343.716 254.496 342.927 255.563 342.031 256.544C339.812 258.976 337.551 260.192 335.247 260.192ZM341.003 275.296C338.571 275.296 337.355 274.357 337.355 272.48C337.355 270.389 339.104 268.427 342.603 266.592C343.03 266.379 343.712 266.123 344.651 265.824C345.632 265.525 346.848 265.163 348.299 264.736C349.323 264.48 350.24 264.224 351.051 263.968C351.862 263.755 352.587 263.541 353.227 263.328C353.44 262.731 353.718 262.005 354.059 261.152C354.4 260.341 354.742 259.403 355.083 258.336C355.296 257.781 355.51 257.099 355.723 256.288C355.979 255.435 356.299 254.453 356.683 253.344C357.067 252.235 357.558 251.019 358.155 249.696C358.795 248.373 359.542 246.987 360.395 245.536C359.968 246.048 359.456 246.731 358.859 247.584C358.304 248.395 357.664 249.355 356.939 250.464C354.891 253.621 353.504 255.627 352.779 256.48C350.688 259.04 348.79 260.32 347.083 260.32C345.974 260.32 345.056 259.957 344.331 259.232C343.648 258.421 343.307 257.483 343.307 256.416C343.307 254.496 344.011 252.32 345.419 249.888C345.632 249.547 346.059 248.907 346.699 247.968C347.339 246.987 348.235 245.664 349.387 244C350.795 241.952 351.499 240.48 351.499 239.584C351.499 239.115 351.222 238.88 350.667 238.88C350.155 238.88 349.664 239.051 349.195 239.392C348.683 239.733 348.384 240.139 348.299 240.608L348.171 240.736H347.979L347.851 240.672C347.936 240.117 348.299 239.605 348.939 239.136C349.536 238.709 350.134 238.432 350.731 238.304C350.944 238.261 351.158 238.24 351.371 238.24C351.627 238.197 351.862 238.176 352.075 238.176C353.654 238.176 354.443 238.795 354.443 240.032C354.443 241.696 353.014 244.469 350.155 248.352C347.467 252.107 346.123 255.2 346.123 257.632C346.123 258.955 346.656 259.616 347.723 259.616C349.43 259.616 352.416 256.331 356.683 249.76C360.267 244.213 363.232 240.587 365.579 238.88C366.688 238.027 367.542 237.6 368.139 237.6C368.608 237.6 368.843 237.835 368.843 238.304C368.843 238.773 368.331 239.179 367.307 239.52C364.96 240.203 362.998 241.888 361.419 244.576C360.822 245.643 360.288 246.795 359.819 248.032C359.35 249.269 359.008 250.613 358.795 252.064C358.624 252.875 358.475 253.685 358.347 254.496C358.262 255.307 358.155 256.117 358.027 256.928C357.856 257.739 357.686 258.528 357.515 259.296C357.344 260.064 357.11 260.896 356.811 261.792C362.4 259.232 366.582 255.136 369.355 249.504C369.483 249.291 369.59 249.184 369.675 249.184C369.888 249.184 369.931 249.355 369.803 249.696C368.395 252.64 366.582 255.2 364.363 257.376C362.187 259.509 359.584 261.216 356.555 262.496C355.488 265.141 354.251 267.339 352.843 269.088C351.478 270.88 349.536 272.437 347.019 273.76C345.099 274.784 343.094 275.296 341.003 275.296ZM341.387 274.72C346.08 274.72 349.899 271.243 352.843 264.288C352.203 264.501 351.478 264.736 350.667 264.992C349.856 265.291 348.96 265.568 347.979 265.824C347.424 265.995 346.72 266.208 345.867 266.464C345.014 266.763 344.032 267.125 342.923 267.552C342.411 267.851 341.92 268.171 341.451 268.512C340.982 268.896 340.512 269.323 340.043 269.792C338.976 270.944 338.443 271.989 338.443 272.928C338.443 274.123 339.424 274.72 341.387 274.72Z" fill="white"/>
<path d="M261.125 211.5C261.125 214.538 258.663 217 255.625 217C252.587 217 250.125 214.538 250.125 211.5V176.778C250.125 167.283 237.326 164.259 233.077 172.75L221.037 196.805C219.674 199.529 216.888 201.25 213.842 201.25C210.797 201.25 208.013 199.532 206.649 196.811L194.732 173.05C190.478 164.566 177.688 167.593 177.688 177.085V211.5C177.688 214.538 175.225 217 172.188 217C169.15 217 166.688 214.538 166.688 211.5V132.008C166.688 127.171 170.609 123.25 175.446 123.25C178.772 123.25 181.811 125.134 183.29 128.112L205.799 173.429C209.111 180.096 218.625 180.089 221.926 173.417L244.308 128.185C245.804 125.163 248.884 123.25 252.256 123.25C257.154 123.25 261.125 127.221 261.125 132.119V211.5Z" fill="white"/>
<rect x="245" y="155" width="42" height="24" rx="9" fill="#218358"/>
<path d="M259.359 176.312C257.807 176.312 256.411 175.958 255.172 175.25C253.932 174.542 252.953 173.578 252.234 172.359C251.526 171.13 251.172 169.74 251.172 168.188C251.172 166.646 251.526 165.266 252.234 164.047C252.953 162.818 253.932 161.849 255.172 161.141C256.411 160.422 257.807 160.062 259.359 160.062C260.911 160.062 262.302 160.422 263.531 161.141C264.76 161.849 265.729 162.818 266.438 164.047C267.146 165.266 267.5 166.646 267.5 168.188C267.5 169.74 267.146 171.13 266.438 172.359C265.729 173.578 264.76 174.542 263.531 175.25C262.302 175.958 260.911 176.312 259.359 176.312ZM259.344 174C260.396 174 261.339 173.745 262.172 173.234C263.005 172.724 263.661 172.031 264.141 171.156C264.63 170.281 264.875 169.286 264.875 168.172C264.875 167.078 264.63 166.094 264.141 165.219C263.661 164.344 263.005 163.651 262.172 163.141C261.339 162.63 260.396 162.375 259.344 162.375C258.292 162.375 257.344 162.63 256.5 163.141C255.667 163.651 255.005 164.344 254.516 165.219C254.036 166.094 253.797 167.078 253.797 168.172C253.797 169.286 254.036 170.281 254.516 171.156C255.005 172.031 255.667 172.724 256.5 173.234C257.344 173.745 258.292 174 259.344 174ZM278.047 176.312C276.495 176.312 275.099 175.958 273.859 175.25C272.62 174.542 271.641 173.578 270.922 172.359C270.214 171.13 269.859 169.74 269.859 168.188C269.859 166.646 270.214 165.266 270.922 164.047C271.641 162.818 272.62 161.849 273.859 161.141C275.099 160.422 276.495 160.062 278.047 160.062C279.599 160.062 280.99 160.422 282.219 161.141C283.448 161.849 284.417 162.818 285.125 164.047C285.833 165.266 286.188 166.646 286.188 168.188C286.188 169.74 285.833 171.13 285.125 172.359C284.417 173.578 283.448 174.542 282.219 175.25C280.99 175.958 279.599 176.312 278.047 176.312ZM278.031 174C279.083 174 280.026 173.745 280.859 173.234C281.693 172.724 282.349 172.031 282.828 171.156C283.318 170.281 283.562 169.286 283.562 168.172C283.562 167.078 283.318 166.094 282.828 165.219C282.349 164.344 281.693 163.651 280.859 163.141C280.026 162.63 279.083 162.375 278.031 162.375C276.979 162.375 276.031 162.63 275.188 163.141C274.354 163.651 273.693 164.344 273.203 165.219C272.724 166.094 272.484 167.078 272.484 168.172C272.484 169.286 272.724 170.281 273.203 171.156C273.693 172.031 274.354 172.724 275.188 173.234C276.031 173.745 276.979 174 278.031 174ZM304.422 176H301.859V167.281C301.859 165.802 301.438 164.62 300.594 163.734C299.75 162.849 298.63 162.406 297.234 162.406C295.786 162.406 294.609 162.885 293.703 163.844C292.807 164.792 292.359 166.042 292.359 167.594V176H289.797V160.375H292.031L292.125 162.906C292.698 161.99 293.453 161.286 294.391 160.797C295.328 160.307 296.432 160.062 297.703 160.062C299.776 160.062 301.411 160.688 302.609 161.938C303.818 163.188 304.422 164.901 304.422 167.078V176Z" fill="white"/>
</svg>
