<svg width="100" height="113" viewBox="0 0 100 113" fill="none" xmlns="http://www.w3.org/2000/svg">
<path d="M50.0008 113C48.4479 113 46.9984 112.585 45.6527 111.858L31.8843 103.656C29.8141 102.515 30.8492 102.1 31.4704 101.892C34.2656 100.958 34.7829 100.75 37.6814 99.089C37.992 98.8814 38.4065 98.9849 38.7171 99.1926L49.2763 105.525C49.6902 105.733 50.2075 105.733 50.5181 105.525L91.8242 81.5446C92.2355 81.337 92.4465 80.9217 92.4465 80.403V32.5452C92.4465 32.0259 92.2355 31.6107 91.8242 31.4031L50.5181 7.52629C50.1042 7.31868 49.5863 7.31868 49.2763 7.52629L7.9712 31.4031C7.55674 31.6107 7.35004 32.13 7.35004 32.5452V80.403C7.35004 80.8182 7.55674 81.337 7.9712 81.5446L19.2549 88.0846C25.3627 91.1993 29.193 87.5658 29.193 83.9324V36.6975C29.193 36.0746 29.7103 35.4518 30.4353 35.4518H35.7146C36.3358 35.4518 36.957 35.9711 36.957 36.6975V83.9324C36.957 92.1333 32.5055 96.9088 24.7415 96.9088C22.3607 96.9088 20.4973 96.9088 15.2174 94.3134L4.34758 88.0846C1.65624 86.5278 0 83.6207 0 80.5065V32.6488C0 29.5346 1.65624 26.6281 4.34758 25.0707L45.6527 1.09036C48.2407 -0.363453 51.7604 -0.363453 54.3484 1.09036L95.6551 25.0707C98.3443 26.6281 100 29.5346 100 32.6488V80.5065C100 83.6207 98.3443 86.5278 95.6551 88.0846L54.3484 112.065C53.1061 112.585 51.5537 113 50.0008 113Z" fill="#5FA04E"/>
<path d="M62.8944 80.2517C44.8636 80.2517 41.1553 71.8871 41.1553 64.7772C41.1553 64.1499 41.6701 63.5226 42.3911 63.5226H47.7482C48.3663 63.5226 48.8816 63.9408 48.8816 64.5681C49.7055 70.1095 52.0752 72.8278 62.9968 72.8278C71.6498 72.8278 75.3597 70.8416 75.3597 66.1366C75.3597 63.4177 74.3259 61.431 60.8316 60.0721C49.6026 58.9218 42.5973 56.4126 42.5973 47.3159C42.5973 38.8471 49.6026 33.8281 61.3469 33.8281C74.5359 33.8281 81.0243 38.4289 81.8482 48.4662C81.8482 48.7796 81.7458 49.0936 81.5412 49.4069C81.3312 49.616 81.0243 49.8257 80.712 49.8257H75.2521C74.7405 49.8257 74.2236 49.4069 74.1213 48.8844C72.8828 43.1339 69.6898 41.2515 61.2441 41.2515C51.7661 41.2515 50.6327 44.5976 50.6327 47.1068C50.6327 50.1391 51.9718 51.0803 64.7467 52.7531C77.4166 54.4259 83.3935 56.8308 83.3935 65.8227C83.3935 75.0236 75.8713 80.2517 62.8944 80.2517Z" fill="#5FA04E"/>
</svg>
