<svg width="99" height="108" viewBox="0 0 99 108" fill="none" xmlns="http://www.w3.org/2000/svg">
<path d="M89.332 0H9.66797C4.3285 0 0 4.722 0 10.5469V97.4531C0 103.278 4.3285 108 9.66797 108H89.332C94.6715 108 99 103.278 99 97.4531V10.5469C99 4.722 94.6715 0 89.332 0Z" fill="#3178C6"/>
<path fill-rule="evenodd" clip-rule="evenodd" d="M61.2831 85.941V96.5007C62.8567 97.3808 64.7178 98.0406 66.8664 98.4806C69.015 98.9206 71.2794 99.1406 73.6601 99.1406C75.9802 99.1406 78.1841 98.8987 80.2722 98.4146C82.3603 97.9307 84.1912 97.1331 85.7647 96.0221C87.3383 94.9113 88.5841 93.4592 89.502 91.6663C90.4199 89.8733 90.8789 87.657 90.8789 85.0171C90.8789 83.103 90.6167 81.4257 90.0921 79.9848C89.5675 78.5438 88.8111 77.2624 87.8225 76.1404C86.834 75.0184 85.6487 74.0119 84.2668 73.1209C82.8848 72.2299 81.3264 71.3884 79.5914 70.5966C78.3204 70.0245 77.1806 69.4691 76.1718 68.9302C75.163 68.391 74.3057 67.8411 73.5995 67.2802C72.8934 66.7191 72.3487 66.1251 71.9655 65.4982C71.5822 64.8711 71.3904 64.1617 71.3904 63.3696C71.3904 62.6438 71.5619 61.9893 71.9049 61.4062C72.248 60.8232 72.7321 60.3229 73.3575 59.9048C73.983 59.4869 74.7495 59.1623 75.6573 58.9313C76.5653 58.7003 77.5738 58.5849 78.6835 58.5849C79.4904 58.5849 80.3428 58.651 81.2405 58.7828C82.1383 58.9148 83.0411 59.1184 83.9491 59.3932C84.8569 59.6683 85.7394 60.0149 86.597 60.4327C87.4543 60.8508 88.2461 61.3347 88.9724 61.8848V52.018C87.4998 51.4021 85.8908 50.9456 84.1457 50.6486C82.4007 50.3516 80.3982 50.2031 78.1388 50.2031C75.8388 50.2031 73.6601 50.4727 71.6023 51.0116C69.5446 51.5506 67.734 52.392 66.1703 53.5359C64.6068 54.6801 63.3712 56.1374 62.4634 57.9085C61.5556 59.6793 61.1016 61.7967 61.1016 64.2606C61.1016 67.4066 61.9338 70.0905 63.5982 72.3125C65.2625 74.5343 67.7893 76.4153 71.1787 77.9553C72.5102 78.5493 73.7509 79.1321 74.9008 79.7042C76.0508 80.2763 77.0444 80.8703 77.8815 81.4862C78.7187 82.1021 79.3794 82.7731 79.8638 83.4992C80.348 84.225 80.5901 85.05 80.5901 85.9741C80.5901 86.6561 80.4387 87.2885 80.1361 87.8715C79.8334 88.4545 79.3744 88.9604 78.7591 89.3894C78.1439 89.8185 77.3772 90.1538 76.4593 90.3958C75.5413 90.6379 74.4671 90.7588 73.2364 90.7588C71.1383 90.7588 69.0604 90.3574 67.0025 89.5544C64.9448 88.7515 63.0382 87.5471 61.2831 85.941ZM45.0102 59.9235H57.4277V51.2578H22.8164V59.9235H35.1732V98.5078H45.0102V59.9235Z" fill="white"/>
</svg>
